<?xml version="1.0" encoding="utf-8"?>
<svg viewBox="129.233 140.746 141.063 135.502" xmlns="http://www.w3.org/2000/svg">
  <rect x="133.531" y="146.361" width="132.692" height="98.934" style="stroke: rgb(0, 0, 0); fill: rgb(225, 217, 217);"/>
  <path d="M 261.479 140.746 L 138.05 140.746 C 133.205 140.746 129.233 145.435 129.233 151.165 L 129.233 239.756 C 129.233 245.481 133.2 250.17 138.05 250.17 L 195.356 250.17 L 195.356 265.829 L 173.315 265.829 C 170.881 265.829 168.907 268.163 168.907 271.039 C 168.907 273.914 170.881 276.248 173.315 276.248 L 226.214 276.248 C 228.646 276.248 230.621 273.914 230.621 271.039 C 230.621 268.163 228.646 265.829 226.214 265.829 L 204.173 265.829 L 204.173 250.17 L 261.479 250.17 C 266.324 250.17 270.296 245.481 270.296 239.756 L 270.296 151.165 C 270.296 145.435 266.324 140.746 261.479 140.746 Z M 261.479 239.756 L 138.05 239.756 L 138.05 151.165 L 261.479 151.165 L 261.479 239.756 Z" style="fill: rgb(30, 30, 30);"/>
  <path d="M 177.429 223.99 L 177.429 164.492 C 177.429 160.402 180.776 157.055 184.867 157.055 L 214.615 157.055 C 218.707 157.055 222.053 160.402 222.053 164.492 L 222.053 223.99 C 222.053 228.081 218.707 231.428 214.615 231.428 L 184.867 231.428 C 180.776 231.428 177.429 228.081 177.429 223.99 Z" style="fill: rgb(30, 30, 30);"/>
  <path d="M 214.615 162.632 L 184.867 162.632 C 183.75 162.632 183.008 163.377 183.008 164.492 L 183.008 218.413 C 183.008 219.529 183.75 220.272 184.867 220.272 L 214.615 220.272 C 215.732 220.272 216.474 219.529 216.474 218.413 L 216.474 164.492 C 216.474 163.377 215.732 162.632 214.615 162.632 Z" style="fill: rgb(166, 216, 100);"/>
  <path d="M 194.162 223.99 L 205.319 223.99 L 205.319 227.71 L 194.162 227.71 L 194.162 223.99 Z" fill="#78909C" style=""/>
  <g id="Icons" stroke="none" stroke-width="1" fill="none" fill-rule="evenodd" transform="matrix(0.6165, 0, 0, 0.6165, 186.847488, 177.382141)" style="">
    <g id="Color-" transform="translate(-304.000000, -560.000000)" fill="#95CF00"/>
  </g>
  <path d="M 190.619 186.93 L 190.619 183.93 L 208.619 183.93 L 208.619 197.93 L 201.619 197.93 M 190.619 193.93 C 192.828 193.93 194.619 195.721 194.619 197.93 M 190.619 189.93 C 195.037 189.93 198.619 193.512 198.619 197.93 M 190.619 197.92 L 190.619 197.93" stroke="#000000" stroke-width="1.5" stroke-linecap="round" stroke-linejoin="round" style="fill: rgba(0, 0, 0, 0);"/>
</svg>